<svg width="50" height="41" viewBox="0 0 50 41" xmlns="http://www.w3.org/2000/svg">
<path fill-rule="evenodd" clip-rule="evenodd" d="M3.98593 39C2.89222 39 2 38.1119 2 37.0164V11H48V36.9983C48 38.1107 47.1109 39 46.0141 39H3.98593ZM2 9V2.98361C2 1.91061 2.88803 2 3.98347 2H12.3423C12.9048 2 13.456 2.15818 13.933 2.45647L17.0268 4.39137C17.6628 4.7891 18.3977 5 19.1478 5H45.994C47.0923 5 48 5.89621 48 7.00174V9H2ZM19.6577 3C19.0952 3 18.544 2.84182 18.067 2.54353L14.9732 0.608627C14.3372 0.210901 13.6023 0 12.8522 0H4.00552C1.79333 0 0 0.779348 0 2.98231V37.0177C0 39.2171 1.79943 41 3.98657 41H46.0134C48.2151 41 50 39.2148 50 37.0098V6.99018C50 4.78646 48.2059 3 45.9883 3H19.6577Z" />
<path fill-rule="evenodd" clip-rule="evenodd" d="M17.9289 22.6569L24.2929 16.2929C24.6834 15.9024 25.3166 15.9024 25.7071 16.2929L32.0711 22.6569C32.4616 23.0474 32.4616 23.6805 32.0711 24.0711C31.6805 24.4616 31.0474 24.4616 30.6569 24.0711L26 19.4142V41H24V19.4142L19.3431 24.0711C18.9526 24.4616 18.3195 24.4616 17.9289 24.0711C17.5384 23.6805 17.5384 23.0474 17.9289 22.6569Z" />
</svg>
