<svg width="55" height="46" viewBox="0 0 55 46" xmlns="http://www.w3.org/2000/svg">
<path fill-rule="evenodd" clip-rule="evenodd" d="M42.1055 11.4998H6.10547C3.89633 11.4998 2.10547 13.2907 2.10547 15.4998V39.4998C2.10547 41.7089 3.89633 43.4998 6.10547 43.4998H42.1055C44.3146 43.4998 46.1055 41.7089 46.1055 39.4998V15.4998C46.1055 13.2907 44.3146 11.4998 42.1055 11.4998ZM6.10547 9.4998C2.79176 9.4998 0.105469 12.1861 0.105469 15.4998V39.4998C0.105469 42.8135 2.79176 45.4998 6.10547 45.4998H42.1055C45.4192 45.4998 48.1055 42.8135 48.1055 39.4998V15.4998C48.1055 12.1861 45.4192 9.4998 42.1055 9.4998H6.10547Z" fill="#3C3F4F"/>
<path fill-rule="evenodd" clip-rule="evenodd" d="M32.933 18.1955C31.2762 18.1955 29.933 19.5386 29.933 21.1955C29.933 22.8523 31.2762 24.1955 32.933 24.1955C34.5899 24.1955 35.933 22.8523 35.933 21.1955C35.933 19.5386 34.5899 18.1955 32.933 18.1955ZM27.933 21.1955C27.933 18.4341 30.1716 16.1955 32.933 16.1955C35.6944 16.1955 37.933 18.4341 37.933 21.1955C37.933 23.9569 35.6944 26.1955 32.933 26.1955C30.1716 26.1955 27.933 23.9569 27.933 21.1955Z" fill="#3C3F4F"/>
<path fill-rule="evenodd" clip-rule="evenodd" d="M16.3388 26.9542C15.6082 26.2971 14.5085 26.2681 13.7442 26.8858L2.13118 36.2718L0.873994 34.7163L12.487 25.3303C14.0155 24.0949 16.2151 24.1529 17.6763 25.4672L28.254 34.9812C28.926 35.5856 29.9197 35.6642 30.6783 35.1731L46.6886 24.809L47.7754 26.488L31.7652 36.852C30.2479 37.8343 28.2604 37.6769 26.9166 36.4682L16.3388 26.9542Z" fill="#3C3F4F"/>
<path fill-rule="evenodd" clip-rule="evenodd" d="M13.3918 2.97417L51.1735 6.94519C52.272 7.06065 53.0689 8.04477 52.9535 9.14329L49.952 37.6998C49.8366 38.7983 48.8525 39.5953 47.7539 39.4798L46.1055 39.3065L46.1055 39.4998C46.1055 40.123 46.0105 40.7239 45.8342 41.289L47.5449 41.4688C49.7419 41.6998 51.7102 40.1059 51.9411 37.9089L54.9425 9.35234C55.1734 7.15531 53.5796 5.18706 51.3825 4.95614L13.6008 0.985127C11.4038 0.754209 9.43554 2.34806 9.20462 4.5451L8.68386 9.4998H10.6949L11.1937 4.75415C11.3091 3.65564 12.2932 2.85871 13.3918 2.97417Z" fill="#3C3F4F"/>
</svg>
