<svg width="16" height="16" viewBox="0 0 16 16" xmlns="http://www.w3.org/2000/svg">
<path fill-rule="evenodd" clip-rule="evenodd" d="M7.99556 0C4.47489 0 1.48541 2.27423 0.416032 5.43375H0.416108C0.240942 5.93448 0.488618 6.48956 0.985694 6.69039C1.49776 6.89728 2.0806 6.64988 2.28748 6.13781L2.58006 5.41367C3.54606 3.39461 5.60794 2 7.99556 2C9.86835 2 11.5407 2.85803 12.641 4.20242H10.9863C10.4391 4.20242 9.99556 4.64575 9.99556 5.20121C9.99556 5.75283 10.4465 6.2 10.9863 6.2L15.0048 6.2C15.552 6.2 15.9956 5.75667 15.9956 5.20121C15.9956 5.17242 15.9943 5.14391 15.9919 5.11573V1.19078C15.9919 0.643586 15.5481 0.2 14.9919 0.2C14.4396 0.2 13.9919 0.650975 13.9919 1.19078V2.70424C12.5261 1.04578 10.383 0 7.99556 0ZM8 15.9976C11.5207 15.9976 14.5101 13.7233 15.5795 10.5638H15.5794C15.7546 10.0631 15.5069 9.50801 15.0099 9.30717C14.4978 9.10028 13.915 9.34768 13.7081 9.85975L13.4155 10.5839C12.4495 12.603 10.3876 13.9976 8 13.9976C6.12834 13.9976 4.45684 13.1406 3.3565 11.7976H5.00922C5.55641 11.7976 6 11.3542 6 10.7988C6 10.2472 5.54902 9.8 5.00922 9.8H0.990778C0.443586 9.8 0 10.2433 0 10.7988C0 10.8276 0.00122882 10.8561 0.00363496 10.8843V14.8092C0.00363496 15.3564 0.4475 15.8 1.00363 15.8C1.55592 15.8 2.00363 15.349 2.00363 14.8092V13.2933C3.46943 14.9518 5.61259 15.9976 8 15.9976Z" />
</svg>
